<?xml version="1.0" standalone="no"?>
<!DOCTYPE svg PUBLIC "-//W3C//DTD SVG 20010904//EN"
 "http://www.w3.org/TR/2001/REC-SVG-20010904/DTD/svg10.dtd">
<svg version="1.0" xmlns="http://www.w3.org/2000/svg"
 width="1536.000000pt" height="2000.000000pt" viewBox="0 0 1536.000000 2000.000000"
 preserveAspectRatio="xMidYMid meet">

<g transform="translate(0.000000,2000.000000) scale(0.100000,-0.100000)"
fill="#000000" stroke="none">
<path d="M3174 19986 c-55 -40 -114 -256 -121 -446 -13 -334 83 -673 268 -950
110 -165 316 -359 504 -477 145 -92 342 -166 530 -200 125 -23 402 -23 553 1
63 10 116 15 120 12 23 -24 -168 -129 -310 -170 -227 -65 -509 -74 -733 -22
-133 30 -213 33 -286 7 -155 -54 -552 -242 -774 -367 -1043 -585 -1831 -1421
-2365 -2509 -329 -670 -506 -1327 -551 -2050 -19 -311 9 -627 71 -790 14 -38
14 -38 79 137 151 413 295 686 510 975 94 126 255 302 266 292 3 -3 -24 -71
-61 -150 -510 -1111 -680 -2246 -503 -3364 126 -798 432 -1530 867 -2075 116
-145 362 -393 377 -379 2 2 -8 45 -21 94 -74 274 -104 490 -111 782 -6 237 4
395 38 593 23 135 28 155 39 144 5 -5 25 -90 45 -189 101 -504 257 -974 460
-1390 583 -1195 1576 -1969 2935 -2289 199 -46 502 -99 650 -112 l75 -6 -100
67 c-138 92 -222 161 -348 284 -135 132 -214 225 -313 372 -77 114 -184 318
-184 352 0 13 28 -6 97 -66 299 -257 617 -432 1118 -614 859 -312 1958 -422
2810 -282 386 64 744 192 985 354 108 72 235 184 223 195 -4 5 -55 16 -113 25
-691 112 -1328 474 -1746 991 -468 577 -725 1317 -701 2014 26 751 322 1415
898 2014 113 118 129 138 104 132 -60 -14 -561 -19 -692 -7 -641 61 -1227 305
-1771 740 -518 414 -860 912 -1053 1531 -91 290 -129 528 -134 840 -5 251 -2
249 45 -45 205 -1287 958 -2192 2161 -2599 386 -130 709 -181 1149 -180 452 1
767 51 1115 179 420 155 648 202 1012 212 425 11 781 -50 1165 -200 229 -90
499 -242 683 -386 274 -214 452 -305 698 -358 115 -25 426 -25 549 0 414 84
760 343 958 719 62 118 124 302 146 436 25 153 16 399 -20 541 -33 130 -89
265 -160 384 -69 116 -78 141 -117 312 -70 311 -192 602 -335 798 -72 99 -87
80 -108 -136 -10 -101 -39 -277 -72 -440 -30 -149 -54 -285 -54 -303 0 -42 37
-95 82 -117 20 -10 63 -22 97 -28 34 -6 61 -15 61 -19 0 -10 -109 -40 -148
-40 -57 0 -131 21 -136 38 -3 9 -19 94 -36 187 -63 342 -108 495 -191 637 -46
79 -143 202 -195 248 -91 80 -119 63 -140 -86 -57 -405 -97 -602 -170 -829
-53 -164 -82 -225 -108 -225 -29 0 -174 36 -507 125 -446 120 -739 180 -1054
215 -231 26 -637 100 -750 136 -235 75 -387 187 -464 342 -45 88 -69 232 -40
232 4 0 20 -21 35 -47 88 -158 206 -288 320 -355 134 -78 331 -146 551 -188
103 -20 153 -19 153 4 0 6 -64 56 -143 111 -241 169 -341 287 -383 455 -24 94
-15 444 15 582 105 483 451 944 966 1290 71 47 121 88 123 99 8 47 -237 10
-482 -71 -358 -120 -675 -341 -910 -634 -53 -68 -72 -85 -75 -71 -5 27 89 205
166 315 90 127 293 329 410 408 366 248 811 349 1419 321 297 -13 955 -105
995 -138 27 -23 40 -162 40 -421 -1 -205 -6 -300 -32 -523 -15 -129 -6 -152
51 -144 48 6 246 117 347 194 194 147 350 369 478 681 31 75 42 92 59 92 12 0
82 -7 156 -15 74 -8 144 -15 154 -15 43 0 5 -9 -89 -20 -55 -7 -101 -13 -102
-14 -1 -1 4 -38 12 -81 20 -109 19 -421 0 -571 -17 -126 -14 -150 15 -159 46
-15 210 87 316 197 145 149 238 334 320 633 13 49 25 69 69 110 147 140 299
450 390 800 65 250 79 337 79 500 1 172 -11 216 -91 337 -51 78 -111 133 -238
220 -269 183 -532 439 -551 537 -8 40 17 51 60 26 118 -68 594 -330 696 -382
l125 -65 3 38 c5 58 -16 191 -38 240 -54 123 -418 395 -826 617 -421 229 -990
436 -1394 506 -193 34 -279 41 -598 51 -532 16 -660 45 -1647 367 -547 179
-744 226 -1065 254 -253 22 -672 -5 -1030 -67 -191 -33 -369 -76 -686 -167
-659 -190 -1102 -257 -1687 -257 -373 0 -619 22 -1029 90 -525 89 -899 182
-1733 435 -192 58 -366 108 -385 111 -23 3 -42 0 -56 -10z m6461 -737 c197
-27 349 -104 693 -351 l82 -59 -6 -42 c-16 -121 -89 -284 -122 -274 -9 3 -78
23 -152 46 -212 64 -307 81 -482 88 l-157 6 -16 46 c-38 111 -29 228 26 334
57 110 30 148 -111 153 -41 2 -82 4 -90 5 -31 1 78 41 135 49 88 11 115 11
200 -1z m1221 -555 c104 -14 190 -27 192 -28 6 -7 -74 -64 -139 -100 -137 -75
-318 -119 -415 -100 -27 5 -49 14 -49 21 0 19 189 233 206 233 9 0 101 -11
205 -26z"/>
<path d="M10702 3930 c-172 -4 -316 -11 -320 -14 -3 -4 60 -73 140 -154 153
-154 168 -174 168 -218 0 -15 -121 -453 -269 -973 -486 -1708 -674 -2376 -686
-2429 l-7 -32 438 2 438 3 77 290 c43 160 81 300 84 313 l5 22 275 0 275 0 2
-317 3 -318 430 0 430 0 8 170 c18 385 -11 3627 -33 3649 -13 13 -1028 17
-1458 6z m695 -1037 c-4 -153 -9 -492 -12 -753 -3 -261 -8 -508 -11 -547 l-6
-73 -214 0 c-118 0 -214 3 -214 6 0 10 432 1629 437 1637 2 4 9 7 15 7 8 0 9
-80 5 -277z"/>
<path d="M1434 3919 c-4 -7 69 -87 173 -193 99 -99 183 -189 187 -199 5 -15
-84 -674 -184 -1357 -19 -132 -249 -1779 -270 -1933 -5 -43 -10 -92 -10 -108
l0 -29 433 2 432 3 58 410 c32 226 79 561 105 745 l47 335 410 3 411 2 51 368
c28 202 49 370 46 375 -2 4 -186 7 -409 7 -222 0 -404 3 -404 8 3 40 118 813
122 818 19 18 1104 12 1122 -7 2 -2 -5 -121 -15 -264 -26 -356 -35 -785 -20
-1013 37 -582 152 -1107 330 -1512 74 -166 193 -370 216 -370 19 0 229 134
348 223 163 121 300 242 474 418 177 179 277 294 412 474 489 648 810 1405
966 2273 46 253 42 243 87 203 45 -40 62 -80 55 -134 -3 -23 -53 -382 -112
-797 -58 -415 -123 -881 -145 -1035 -66 -472 -119 -847 -162 -1150 -22 -159
-41 -310 -42 -335 l-1 -45 435 0 435 0 102 705 c56 388 102 708 102 713 1 12
253 7 290 -6 92 -32 100 -118 46 -497 -77 -547 -125 -896 -125 -907 0 -19 869
-19 875 0 2 6 25 149 49 317 136 920 151 1152 87 1278 -36 72 -130 142 -226
171 -66 20 -68 21 -62 27 3 3 39 14 81 24 181 46 279 135 345 315 19 52 43
165 70 325 79 475 85 528 86 755 0 193 -2 215 -23 275 -58 167 -180 252 -437
306 -85 18 -154 19 -1335 19 l-1245 0 -13 -70 c-119 -643 -240 -1052 -482
-1621 -107 -250 -322 -664 -346 -664 -7 0 -8 17 -3 58 5 31 29 203 54 382 25
179 72 516 105 750 32 234 82 587 109 785 28 198 51 366 51 373 0 17 -3725 18
-3736 1z m6349 -710 c56 -15 70 -53 57 -156 -42 -335 -104 -734 -120 -770 -27
-61 -59 -74 -205 -81 -67 -2 -139 -2 -160 2 l-38 7 7 67 c9 90 125 914 131
930 6 15 272 17 328 1z"/>
<path d="M8730 3919 c0 -6 78 -89 173 -185 94 -96 178 -188 185 -205 9 -23 10
-44 3 -87 -6 -31 -49 -336 -96 -677 -85 -614 -195 -1400 -300 -2145 -30 -212
-58 -415 -61 -452 l-7 -68 431 0 c237 0 433 4 436 9 3 4 30 185 60 402 30 217
84 603 120 859 36 256 82 580 101 720 20 140 52 368 71 505 88 632 165 1185
174 1240 6 33 10 68 10 78 0 16 -38 17 -650 17 -468 0 -650 -3 -650 -11z"/>
</g>
</svg>
